<svg width="600" height="134" viewBox="0 0 161 36" fill="none" xmlns="http://www.w3.org/2000/svg" class="w-full h-full" style="color: var(--new-neutral-base);"><path d="M26.0082 10.7808C24.0372 8.61499 21.297 7.41178 18.3645 7.31552C18.2202 7.31552 18.1241 7.31552 17.9799 7.31552C15.1916 7.31552 12.5475 8.37434 10.5284 10.2513C8.36506 12.2246 7.16321 14.9679 7.06706 17.9038C6.97091 20.8396 8.02854 23.631 9.99958 25.7487C11.9706 27.9145 14.7108 29.1177 17.6434 29.2139C20.5759 29.3102 23.3642 28.2995 25.4794 26.2781C29.9022 22.139 30.1426 15.2086 26.0082 10.7808Z" fill="#9F3031"></path><path d="M27.9311 9.00001C22.8353 3.51338 14.2781 3.22461 8.79764 8.32622C3.31719 13.4278 3.02875 21.9947 8.1246 27.4813C13.2204 32.9679 21.7776 33.2567 27.2581 28.1551C32.7385 23.0535 33.027 14.4866 27.9311 9.00001ZM26.2485 27.0481C23.989 29.1177 21.1046 30.2727 18.0279 30.2727C14.9511 30.2727 17.7394 30.2727 17.5952 30.2727C14.3742 30.1765 11.3936 28.7808 9.18223 26.4225C6.97082 24.0642 5.81705 20.984 5.96127 17.7594C6.05742 14.5348 7.45156 11.5508 9.80719 9.33691C12.1628 7.12301 15.2396 6.01606 18.4605 6.11231C21.6815 6.20857 24.6621 7.60429 26.8735 9.96258C31.3924 14.8235 31.1521 22.4759 26.2485 27.0481Z" fill="currentColor" class="text-foreground"></path><path d="M15.3357 11.5989C15.8933 11.5989 16.3453 11.1464 16.3453 10.5882C16.3453 10.03 15.8933 9.57755 15.3357 9.57755C14.7782 9.57755 14.3262 10.03 14.3262 10.5882C14.3262 11.1464 14.7782 11.5989 15.3357 11.5989Z" fill="white"></path><path d="M25.8157 16.2193C26.3733 16.2193 26.8253 15.7668 26.8253 15.2086C26.8253 14.6504 26.3733 14.1979 25.8157 14.1979C25.2581 14.1979 24.8062 14.6504 24.8062 15.2086C24.8062 15.7668 25.2581 16.2193 25.8157 16.2193Z" fill="white"></path><path d="M10.3357 21.8984C10.8933 21.8984 11.3453 21.4459 11.3453 20.8877C11.3453 20.3295 10.8933 19.877 10.3357 19.877C9.77817 19.877 9.32617 20.3295 9.32617 20.8877C9.32617 21.4459 9.77817 21.8984 10.3357 21.8984Z" fill="white"></path><path d="M21.8738 11.8877C22.4314 11.8877 22.8834 11.4352 22.8834 10.877C22.8834 10.3188 22.4314 9.8663 21.8738 9.8663C21.3163 9.8663 20.8643 10.3188 20.8643 10.877C20.8643 11.4352 21.3163 11.8877 21.8738 11.8877Z" fill="white"></path><path d="M14.7107 26.8556C15.2683 26.8556 15.7203 26.4031 15.7203 25.8449C15.7203 25.2867 15.2683 24.8342 14.7107 24.8342C14.1532 24.8342 13.7012 25.2867 13.7012 25.8449C13.7012 26.4031 14.1532 26.8556 14.7107 26.8556Z" fill="white"></path><path d="M10.8167 15.5936C11.3742 15.5936 11.8262 15.1411 11.8262 14.5829C11.8262 14.0247 11.3742 13.5722 10.8167 13.5722C10.2591 13.5722 9.80713 14.0247 9.80713 14.5829C9.80713 15.1411 10.2591 15.5936 10.8167 15.5936Z" fill="white"></path><path d="M14.3262 14.246C16.4414 12.2729 19.8061 12.3693 21.8252 14.5351C23.0269 15.8826 23.4594 17.6146 23.123 19.2509L25.1426 21.4169L25.1904 21.369C25.6231 21.8503 25.6233 22.5726 25.1426 23.0058L24.3252 23.7753L22.4023 21.1767C22.258 21.4173 21.7772 21.8504 21.585 22.0429C21.3926 22.2354 20.912 22.6202 20.7197 22.7646L23.1719 24.8339L22.3545 25.6044C21.8738 26.0375 21.1524 26.0376 20.7197 25.5565L18.7002 23.3905C17.0177 23.631 15.2869 23.1013 14.0371 21.7538C12.0663 19.6362 12.1629 16.2673 14.3262 14.246ZM19.71 16.6044C18.8447 15.642 17.3548 15.5936 16.4414 16.5077C15.6244 17.2439 15.4694 18.4305 16.001 19.3319C16.093 19.5067 16.206 19.6747 16.3447 19.829C17.2101 20.7434 18.6528 20.791 19.6143 19.9247C19.8443 19.7065 20.0182 19.4512 20.1377 19.1767C20.5426 18.3399 20.4086 17.3038 19.71 16.6044Z" fill="white"></path><path d="M38.0267 24.0642H35.5269L41.5361 12.1283L47.7857 24.0642H45.2859L44.1802 22.0428H39.0843L38.0267 24.0642ZM39.8535 20.2139H43.3629L41.5842 16.508L39.8535 20.2139Z" fill="currentColor" class="text-foreground"></path><path d="M50.0454 21.8021L51.8242 20.6952C52.401 21.5615 54.0356 22.139 55.622 22.139C57.2084 22.139 57.593 21.9947 58.218 21.7059C59.1795 21.2246 59.1314 20.2139 58.218 19.8289C57.593 19.5882 56.8719 19.492 55.7182 19.3476C54.324 19.2032 53.1222 19.0588 52.3049 18.7219C50.8146 18.0963 50.3339 17.0374 50.3819 16.0267C50.3819 14.631 51.1511 13.7166 52.353 13.139C53.2664 12.7059 54.5163 12.4652 55.9585 12.4652C58.4584 12.4652 60.141 13.2834 60.814 14.8717L58.891 15.8824C58.4584 14.9679 57.4969 14.4866 55.8143 14.4866C54.1317 14.4866 52.6414 14.8717 52.5933 15.8824C52.5933 16.7968 53.3625 17.0374 54.6124 17.2781C54.949 17.2781 55.3336 17.3743 55.7662 17.4225C56.0547 17.4225 56.3912 17.4706 56.7277 17.5187C57.6411 17.615 58.5064 17.7594 59.1795 18.0481C60.6698 18.6257 61.1505 19.7326 61.1024 20.7914C61.1024 20.8396 61.1024 20.8877 61.1024 20.9358C61.0063 23.3904 58.4103 24.3529 55.5739 24.3529C52.7376 24.3529 50.7665 23.4866 50.0454 21.8984V21.8021Z" fill="currentColor" class="text-foreground"></path><path d="M69.4192 19.2032L66.8232 21.6577V24.1123H64.6118V12.6577H66.8232V18.7219L73.3132 12.6096H76.4861L71.0057 17.7594L76.5342 24.0642H73.6497L69.3712 19.2032H69.4192Z" fill="currentColor" class="text-foreground"></path><path d="M83.745 14.7754H79.1299V12.6096H90.5715V14.7754H85.9564V24.0642H83.745V14.7754Z" fill="currentColor" class="text-foreground"></path><path d="M94.1289 18.4331V12.6577H96.3403V18.4331C96.3403 20.4064 97.9268 21.9946 99.8497 21.9946C101.773 21.9946 103.359 20.4064 103.359 18.4331V12.6577H105.571V18.4331C105.571 21.6096 103.023 24.1604 99.8497 24.1604C96.6768 24.1604 94.1289 21.6096 94.1289 18.4331Z" fill="currentColor" class="text-foreground"></path><path d="M114.464 20.0214H111.628V24.0642H109.417V12.6096H116.868C118.935 12.6096 120.618 14.2941 120.618 16.3155C120.618 18.3369 119.224 19.7326 117.253 19.9251L121.002 24.0642H118.166L114.464 20.0214ZM116.676 17.9037C117.685 17.9037 118.358 17.1818 118.358 16.2674C118.358 15.3529 117.685 14.6791 116.676 14.6791H111.628V17.9037H116.676Z" fill="currentColor" class="text-foreground"></path><path d="M126.339 24.0642H124.127V12.6096H126.339V24.0642Z" fill="currentColor" class="text-foreground"></path><path d="M129.944 24.0642V12.2727L139.175 19.9732V12.6096H141.386V24.4492L132.156 16.7486V24.016H129.944V24.0642Z" fill="currentColor" class="text-foreground"></path><path d="M151.001 12.6096C153.116 12.6096 155.135 13.5722 156.289 15.2567L154.462 16.508C153.693 15.4492 152.395 14.8235 151.001 14.8235C148.741 14.8235 146.914 16.4118 146.914 18.4331C146.914 20.4545 148.741 22.0428 151.001 22.0428C153.26 22.0428 153.597 21.5134 154.366 20.5027V19.877H150.52V17.9037H156.529V21.2246C155.183 23.1979 153.212 24.2086 150.952 24.2086C147.539 24.2086 144.655 21.7059 144.655 18.4331C144.655 15.1604 147.587 12.6577 150.952 12.6577L151.001 12.6096Z" fill="currentColor" class="text-foreground"></path></svg>