<svg width="16" height="16" viewBox="0 0 16 18" fill="none" xmlns="http://www.w3.org/2000/svg" class="size-6"><path d="M12.7147 4.57707C11.5502 3.29355 9.9313 2.58048 8.19878 2.52344C8.11357 2.52344 8.05677 2.52344 7.97156 2.52344C6.32425 2.52344 4.76214 3.15094 3.56926 4.26332C2.29117 5.43275 1.58112 7.05854 1.52431 8.79842C1.46751 10.5383 2.09235 12.1926 3.25683 13.4476C4.42132 14.7311 6.04023 15.4442 7.77275 15.5012C9.50527 15.5583 11.1526 14.9593 12.4023 13.7614C15.0153 11.3084 15.1573 7.20115 12.7147 4.57707Z" fill="#9F3031"></path><path d="M13.8508 3.52248C10.8402 0.2709 5.78465 0.0997631 2.54682 3.12316C-0.691009 6.14656 -0.861421 11.2236 2.14919 14.4752C5.1598 17.7268 10.2154 17.8979 13.4532 14.8745C16.691 11.8511 16.8614 6.77406 13.8508 3.52248ZM12.8567 14.2185C11.5218 15.4449 9.81773 16.1295 8 16.1295C6.18227 16.1295 7.82959 16.1295 7.74438 16.1295C5.84145 16.0724 4.08053 15.2453 2.77403 13.8477C1.46754 12.4501 0.785895 10.6246 0.871101 8.7136C0.927905 6.80259 1.75156 5.03418 3.14326 3.72214C4.53496 2.4101 6.35269 1.75408 8.25562 1.81112C10.1586 1.86817 11.9195 2.69532 13.226 4.09293C15.8958 6.97372 15.7537 11.5088 12.8567 14.2185Z" fill="currentColor"></path><path d="M6.40943 5.06319C6.73884 5.06319 7.00587 4.79502 7.00587 4.46421C7.00587 4.1334 6.73884 3.86523 6.40943 3.86523C6.08002 3.86523 5.81299 4.1334 5.81299 4.46421C5.81299 4.79502 6.08002 5.06319 6.40943 5.06319Z" fill="white"></path><path d="M12.6011 7.80147C12.9305 7.80147 13.1975 7.5333 13.1975 7.20249C13.1975 6.87169 12.9305 6.60352 12.6011 6.60352C12.2717 6.60352 12.0046 6.87169 12.0046 7.20249C12.0046 7.5333 12.2717 7.80147 12.6011 7.80147Z" fill="white"></path><path d="M3.45582 11.1667C3.78522 11.1667 4.05226 10.8985 4.05226 10.5677C4.05226 10.2369 3.78522 9.96875 3.45582 9.96875C3.12641 9.96875 2.85938 10.2369 2.85938 10.5677C2.85938 10.8985 3.12641 11.1667 3.45582 11.1667Z" fill="white"></path><path d="M10.2722 5.23311C10.6016 5.23311 10.8687 4.96494 10.8687 4.63413C10.8687 4.30333 10.6016 4.03516 10.2722 4.03516C9.94282 4.03516 9.67578 4.30333 9.67578 4.63413C9.67578 4.96494 9.94282 5.23311 10.2722 5.23311Z" fill="white"></path><path d="M6.04029 14.1042C6.3697 14.1042 6.63673 13.836 6.63673 13.5052C6.63673 13.1744 6.3697 12.9062 6.04029 12.9062C5.71088 12.9062 5.44385 13.1744 5.44385 13.5052C5.44385 13.836 5.71088 14.1042 6.04029 14.1042Z" fill="white"></path><path d="M3.73975 7.43037C4.06916 7.43037 4.33619 7.1622 4.33619 6.8314C4.33619 6.50059 4.06916 6.23242 3.73975 6.23242C3.41035 6.23242 3.14331 6.50059 3.14331 6.8314C3.14331 7.1622 3.41035 7.43037 3.73975 7.43037Z" fill="white"></path><path d="M12.2034 10.8811L11.0105 9.59755C11.2093 8.62778 10.9537 7.60097 10.2437 6.80234C9.05079 5.51882 7.06265 5.46177 5.81297 6.6312C4.53488 7.82915 4.47807 9.82574 5.64255 11.0807C6.38101 11.8794 7.40348 12.1931 8.39755 12.0505L9.59043 13.334C9.84605 13.6192 10.2721 13.6192 10.5561 13.3625L11.0389 12.9062L9.59043 11.6797C9.70404 11.5941 9.98806 11.366 10.1017 11.2519C10.2153 11.1378 10.4993 10.8811 10.5845 10.7385L11.7206 12.2787L12.2034 11.8223C12.4874 11.5656 12.4874 11.1378 12.2318 10.8526L12.2034 10.8811ZM8.93719 9.99687C8.36915 10.5103 7.51709 10.4818 7.00585 9.93983C6.49461 9.36937 6.52302 8.51369 7.06265 8.00029C7.63069 7.48688 8.48275 7.5154 8.99399 8.05733C9.50523 8.62778 9.47682 9.48346 8.93719 9.99687Z" fill="white"></path><path d="M7.06256 7.97127C6.49452 8.48468 6.46612 9.36888 7.00576 9.91081C7.51699 10.4813 8.39745 10.5098 8.93709 9.96785C9.50513 9.45445 9.53353 8.57024 8.99389 8.02831C8.48266 7.45786 7.6022 7.42934 7.06256 7.97127Z" fill="#9F3031"></path></svg>